<svg data-v-0dd9719b="" version="1.0" xmlns="http://www.w3.org/2000/svg" xmlns:xlink="http://www.w3.org/1999/xlink" width="100%" height="100%" viewBox="0 0 340.000000 250.000000" preserveAspectRatio="xMidYMid meet" color-interpolation-filters="sRGB" style="margin: auto;"> <rect data-v-0dd9719b="" x="0" y="0" width="100%" height="100%" fill="#333" fill-opacity="0" class="background"/> <!----> <g data-v-0dd9719b="" fill="#fff" class="icon-text-wrapper icon-svg-group iconsvg" transform="translate(95.48999786376953,56.22865295410156)"><g class="iconsvg-imagesvg" transform="translate(37.01000213623047,0)"><g><rect fill="#fff" fill-opacity="0" stroke-width="2" x="0" y="0" width="75" height="100.04668845461215" class="image-rect"/> <svg filter="url(#colors8514182387)" x="0" y="0" width="75" height="100.04668845461215" filtersec="colorsf532312715" class="image-svg-svg primary" style="overflow: visible;"><svg xmlns="http://www.w3.org/2000/svg" xmlns:xlink="http://www.w3.org/1999/xlink" viewBox="0.0037499666213989258 -0.000782012939453125 37.81999969482422 50.45000076293945"><path transform="translate(-1.40625 50.44921875)" d="M12.09-42.68L12.09-7.77Q12.09-6.96 11.53-6.40L11.53-6.40Q10.97-5.84 10.16-5.84L10.16-5.84L7.24-5.84L7.24-44.65L10.16-44.65Q10.97-44.65 11.53-44.05L11.53-44.05Q12.09-43.49 12.09-42.68L12.09-42.68ZM10.16-50.45L1.41-50.45L1.41 0L10.16 0Q13.36 0 15.64-2.29L15.64-2.29Q17.93-4.54 17.93-7.77L17.93-7.77L17.93-42.68Q17.93-45.91 15.64-48.16L15.64-48.16Q13.36-50.45 10.16-50.45L10.16-50.45ZM39.23-50.45L23.70-50.45L23.70-23.27L22.68-23.27L20.74-17.47L23.70-17.47L23.70 0L39.23 0L39.23-5.84L29.50-5.84L29.50-17.47L35.33-17.47L35.33-23.27L29.50-23.27L29.50-44.65L39.23-44.65L39.23-50.45Z"/></svg></svg> <defs><filter id="colors8514182387"><feColorMatrix type="matrix" values="0 0 0 0 0.99609375  0 0 0 0 0.99609375  0 0 0 0 0.99609375  0 0 0 1 0" class="icon-fecolormatrix"/></filter> <filter id="colorsf532312715"><feColorMatrix type="matrix" values="0 0 0 0 0.99609375  0 0 0 0 0.99609375  0 0 0 0 0.99609375  0 0 0 1 0" class="icon-fecolormatrix"/></filter> <filter id="colorsb4652744099"><feColorMatrix type="matrix" values="0 0 0 0 0  0 0 0 0 0  0 0 0 0 0  0 0 0 1 0" class="icon-fecolormatrix"/></filter></defs></g></g> <g transform="translate(0,107.04669189453125)"><g data-gra="path-name" fill-rule="" class="tp-name iconsvg-namesvg" transform="translate(0,0)"><g transform="scale(1)"><g><path d="M6.74 0.34Q5.06 0.34 3.74-0.38 2.42-1.1 1.67-2.43 0.92-3.75 0.92-5.5L0.92-5.5Q0.92-7.22 1.67-8.56 2.42-9.89 3.74-10.64 5.06-11.38 6.74-11.38L6.74-11.38Q9.45-11.38 11.02-9.96L11.02-9.96 11.02-17 13.91-17 13.91 0 11.11 0 11.11-1.29Q10.17-0.41 9.15-0.03 8.14 0.34 6.74 0.34L6.74 0.34ZM7.45-1.93Q8.69-1.93 9.66-2.6 10.63-3.27 11.02-4.39L11.02-4.39 11.02-6.62Q10.65-7.75 9.67-8.43 8.69-9.11 7.45-9.11L7.45-9.11Q5.89-9.11 4.88-8.1 3.86-7.08 3.86-5.5L3.86-5.5Q3.86-3.91 4.88-2.92 5.89-1.93 7.45-1.93L7.45-1.93ZM22.88 0.34Q19.8 0.34 18.01-1.2 16.21-2.74 16.21-5.5L16.21-5.5Q16.21-8.21 17.8-9.8 19.39-11.38 22.33-11.38L22.33-11.38Q24.27-11.38 25.63-10.65 27-9.91 27.69-8.64 28.38-7.36 28.38-5.73L28.38-5.73 28.38-4.39 18.98-4.39Q19.27-1.93 23.25-1.93L23.25-1.93Q24.31-1.93 25.41-2.12 26.52-2.3 27.35-2.62L27.35-2.62 27.35-0.39Q26.56-0.07 25.33 0.14 24.1 0.34 22.88 0.34L22.88 0.34ZM18.98-6.37L25.64-6.37Q25.6-7.68 24.71-8.39 23.83-9.11 22.29-9.11L22.29-9.11Q20.77-9.11 19.89-8.37 19.02-7.64 18.98-6.37L18.98-6.37ZM34.98 0.34Q33.79 0.34 32.43 0.07 31.07-0.21 30.31-0.69L30.31-0.69 30.31-3.15Q31.21-2.6 32.45-2.27 33.7-1.93 34.8-1.93L34.8-1.93Q35.9-1.93 36.41-2.13 36.91-2.32 36.91-2.85L36.91-2.85Q36.91-3.27 36.65-3.53 36.39-3.79 35.8-4.01 35.21-4.23 33.99-4.55L33.99-4.55Q32.61-4.95 31.82-5.36 31.03-5.77 30.62-6.41 30.22-7.04 30.22-8.05L30.22-8.05Q30.22-9.71 31.53-10.55 32.84-11.38 35.08-11.38L35.08-11.38Q36.23-11.38 37.36-11.17 38.5-10.95 39.15-10.56L39.15-10.56 39.15-8.19Q38.46-8.6 37.47-8.86 36.48-9.11 35.44-9.11L35.44-9.11Q34.32-9.11 33.74-8.89 33.17-8.67 33.17-8.05L33.17-8.05Q33.17-7.64 33.48-7.39 33.79-7.15 34.29-6.98 34.8-6.81 36.13-6.46L36.13-6.46Q37.56-6.07 38.36-5.61 39.17-5.15 39.51-4.51 39.86-3.86 39.86-2.9L39.86-2.9Q39.86-1.43 38.61-0.54 37.35 0.34 34.98 0.34L34.98 0.34ZM45.86 0.34Q43.88 0.34 42.62-0.7 41.35-1.75 41.35-3.52L41.35-3.52Q41.35-5.36 42.55-6.39 43.75-7.43 45.91-7.43L45.91-7.43Q48-7.43 49.52-6.58L49.52-6.58 49.52-6.88Q49.52-8.05 48.79-8.58 48.07-9.11 46.46-9.11L46.46-9.11Q45.45-9.11 44.46-8.91 43.47-8.72 42.71-8.37L42.71-8.37 42.71-10.65Q43.4-10.97 44.56-11.18 45.72-11.38 46.8-11.38L46.8-11.38Q49.68-11.38 51.06-10.15 52.44-8.92 52.44-6.74L52.44-6.74 52.44 0 49.7 0 49.7-1.08Q48.99-0.39 48.08-0.02 47.17 0.34 45.86 0.34L45.86 0.34ZM46.57-1.77Q47.54-1.77 48.32-2.15 49.1-2.53 49.52-3.2L49.52-3.2 49.52-4.42Q48.25-5.31 46.62-5.31L46.62-5.31Q44.3-5.31 44.3-3.52L44.3-3.52Q44.3-2.65 44.88-2.21 45.47-1.77 46.57-1.77L46.57-1.77ZM55.09 0L55.09-11.04 57.89-11.04 57.89-9.27Q58.56-10.17 59.79-10.6 61.02-11.04 62.61-11.04L62.61-11.04 62.61-8.83Q60.93-8.83 59.7-8.31 58.47-7.8 57.98-6.69L57.98-6.69 57.98 0 55.09 0ZM64.33 0L64.33-11.04 67.14-11.04 67.14-9.27Q67.8-10.17 69.03-10.6 70.27-11.04 71.85-11.04L71.85-11.04 71.85-8.83Q70.17-8.83 68.94-8.31 67.71-7.8 67.23-6.69L67.23-6.69 67.23 0 64.33 0ZM79.35 0.34Q77.42 0.34 75.96-0.36 74.5-1.06 73.69-2.38 72.89-3.7 72.89-5.52L72.89-5.52Q72.89-7.29 73.68-8.61 74.47-9.94 75.95-10.66 77.42-11.38 79.35-11.38L79.35-11.38Q81.28-11.38 82.74-10.66 84.2-9.94 85.01-8.61 85.81-7.29 85.81-5.52L85.81-5.52Q85.81-3.7 85.01-2.38 84.2-1.06 82.74-0.36 81.28 0.34 79.35 0.34L79.35 0.34ZM79.35-1.93Q80.94-1.93 81.88-2.93 82.82-3.93 82.82-5.52L82.82-5.52Q82.82-7.2 81.89-8.15 80.96-9.11 79.35-9.11L79.35-9.11Q77.74-9.11 76.81-8.15 75.88-7.2 75.88-5.52L75.88-5.52Q75.88-3.93 76.82-2.93 77.76-1.93 79.35-1.93L79.35-1.93ZM88.11 0L88.11-17 91.01-17 91.01 0 88.11 0ZM93.77 0L93.77-17 96.67-17 96.67 0 93.77 0ZM103.48 0.34Q101.5 0.34 100.23-0.7 98.97-1.75 98.97-3.52L98.97-3.52Q98.97-5.36 100.17-6.39 101.36-7.43 103.52-7.43L103.52-7.43Q105.62-7.43 107.13-6.58L107.13-6.58 107.13-6.88Q107.13-8.05 106.41-8.58 105.69-9.11 104.08-9.11L104.08-9.11Q103.06-9.11 102.07-8.91 101.09-8.72 100.33-8.37L100.33-8.37 100.33-10.65Q101.02-10.97 102.18-11.18 103.34-11.38 104.42-11.38L104.42-11.38Q107.3-11.38 108.68-10.15 110.06-8.92 110.06-6.74L110.06-6.74 110.06 0 107.32 0 107.32-1.08Q106.61-0.39 105.7-0.02 104.79 0.34 103.48 0.34L103.48 0.34ZM104.19-1.77Q105.16-1.77 105.94-2.15 106.72-2.53 107.13-3.2L107.13-3.2 107.13-4.42Q105.87-5.31 104.24-5.31L104.24-5.31Q101.91-5.31 101.91-3.52L101.91-3.52Q101.91-2.65 102.5-2.21 103.09-1.77 104.19-1.77L104.19-1.77ZM118.06 0.34Q116.38 0.34 115.06-0.38 113.74-1.1 112.99-2.43 112.24-3.75 112.24-5.5L112.24-5.5Q112.24-7.22 112.99-8.56 113.74-9.89 115.06-10.64 116.38-11.38 118.06-11.38L118.06-11.38Q120.77-11.38 122.34-9.96L122.34-9.96 122.34-17 125.24-17 125.24 0 122.43 0 122.43-1.29Q121.49-0.41 120.47-0.03 119.46 0.34 118.06 0.34L118.06 0.34ZM118.77-1.93Q120.01-1.93 120.98-2.6 121.95-3.27 122.34-4.39L122.34-4.39 122.34-6.62Q121.97-7.75 120.99-8.43 120.01-9.11 118.77-9.11L118.77-9.11Q117.21-9.11 116.2-8.1 115.18-7.08 115.18-5.5L115.18-5.5Q115.18-3.91 116.2-2.92 117.21-1.93 118.77-1.93L118.77-1.93ZM133.65 0.34Q131.72 0.34 130.26-0.36 128.8-1.06 128-2.38 127.19-3.7 127.19-5.52L127.19-5.52Q127.19-7.29 127.98-8.61 128.78-9.94 130.25-10.66 131.72-11.38 133.65-11.38L133.65-11.38Q135.59-11.38 137.05-10.66 138.51-9.94 139.31-8.61 140.12-7.29 140.12-5.52L140.12-5.52Q140.12-3.7 139.31-2.38 138.51-1.06 137.05-0.36 135.59 0.34 133.65 0.34L133.65 0.34ZM133.65-1.93Q135.24-1.93 136.18-2.93 137.13-3.93 137.13-5.52L137.13-5.52Q137.13-7.2 136.19-8.15 135.26-9.11 133.65-9.11L133.65-9.11Q132.04-9.11 131.11-8.15 130.18-7.2 130.18-5.52L130.18-5.52Q130.18-3.93 131.12-2.93 132.07-1.93 133.65-1.93L133.65-1.93ZM142.42 0L142.42-11.04 145.22-11.04 145.22-9.27Q145.89-10.17 147.12-10.6 148.35-11.04 149.94-11.04L149.94-11.04 149.94-8.83Q148.26-8.83 147.03-8.31 145.8-7.8 145.31-6.69L145.31-6.69 145.31 0 142.42 0Z" transform="translate(-0.9200000166893005, 17)"/></g> <!----> <!----> <!----> <!----> <!----> <!----> <!----></g></g> <g data-gra="path-slogan" fill-rule="" class="tp-slogan iconsvg-slogansvg" fill="#fff" transform="translate(39.22000503540039,22.340002059936523)"><!----> <!----> <g transform="scale(1, 1)"><g transform="scale(1)"><path d="M0.62-3.94L0.62-3.94Q0.62-4.88 0.89-5.64Q1.15-6.40 1.62-6.92Q2.09-7.45 2.73-7.73Q3.37-8.02 4.13-8.02L4.13-8.02Q4.85-8.02 5.39-7.72Q5.93-7.43 6.28-7.04L6.28-7.04L5.71-6.41Q5.40-6.74 5.02-6.94Q4.64-7.14 4.14-7.14L4.14-7.14Q3.58-7.14 3.12-6.92Q2.66-6.70 2.34-6.28Q2.02-5.87 1.84-5.28Q1.66-4.69 1.66-3.96L1.66-3.96Q1.66-3.22 1.83-2.62Q2.00-2.03 2.32-1.61Q2.63-1.19 3.08-0.96Q3.53-0.73 4.09-0.73L4.09-0.73Q4.67-0.73 5.09-0.96Q5.52-1.19 5.90-1.61L5.90-1.61L6.47-1.00Q6-0.46 5.41-0.16Q4.82 0.14 4.07 0.14L4.07 0.14Q3.32 0.14 2.69-0.13Q2.06-0.41 1.60-0.93Q1.14-1.45 0.88-2.21Q0.62-2.98 0.62-3.94ZM9.93 0L9.93-7.87L11.90-7.87Q13.72-7.87 14.67-6.86Q15.62-5.86 15.62-3.97L15.62-3.97Q15.62-3.04 15.38-2.30Q15.14-1.56 14.67-1.05Q14.20-0.54 13.52-0.27Q12.84 0 11.95 0L11.95 0L9.93 0ZM10.93-0.82L11.83-0.82Q13.21-0.82 13.90-1.64Q14.59-2.47 14.59-3.97L14.59-3.97Q14.59-5.47 13.90-6.26Q13.21-7.06 11.83-7.06L11.83-7.06L10.93-7.06L10.93-0.82ZM20.31-7.07L20.31-4.14L21.63-4.14Q22.55-4.14 23.04-4.52Q23.54-4.90 23.54-5.66L23.54-5.66Q23.54-6.44 23.04-6.76Q22.55-7.07 21.63-7.07L21.63-7.07L20.31-7.07ZM24.76 0L23.63 0L21.74-3.32L20.31-3.32L20.31 0L19.31 0L19.31-7.87L21.77-7.87Q22.37-7.87 22.88-7.76Q23.39-7.64 23.76-7.38Q24.12-7.12 24.33-6.70Q24.53-6.28 24.53-5.66L24.53-5.66Q24.53-4.74 24.05-4.19Q23.57-3.64 22.77-3.43L22.77-3.43L24.76 0ZM28.28 0L28.28-7.87L29.28-7.87L29.28 0L28.28 0ZM36.34 0.14L36.34 0.14Q35.60 0.14 34.98-0.14Q34.36-0.43 33.92-0.97Q33.48-1.50 33.23-2.26Q32.98-3.02 32.98-3.97L32.98-3.97Q32.98-4.92 33.23-5.67Q33.48-6.42 33.92-6.94Q34.36-7.46 34.98-7.74Q35.60-8.02 36.34-8.02L36.34-8.02Q37.09-8.02 37.71-7.73Q38.32-7.45 38.77-6.93Q39.22-6.41 39.47-5.66Q39.72-4.91 39.72-3.97L39.72-3.97Q39.72-3.02 39.47-2.26Q39.22-1.50 38.77-0.97Q38.32-0.43 37.71-0.14Q37.09 0.14 36.34 0.14ZM36.34-0.73L36.34-0.73Q36.87-0.73 37.30-0.96Q37.72-1.19 38.03-1.61Q38.34-2.04 38.50-2.63Q38.67-3.23 38.67-3.97L38.67-3.97Q38.67-4.70 38.50-5.29Q38.34-5.88 38.03-6.29Q37.72-6.70 37.30-6.92Q36.87-7.14 36.34-7.14L36.34-7.14Q35.82-7.14 35.39-6.92Q34.96-6.70 34.66-6.29Q34.35-5.88 34.18-5.29Q34.02-4.70 34.02-3.97L34.02-3.97Q34.02-3.23 34.18-2.63Q34.35-2.04 34.66-1.61Q34.96-1.19 35.39-0.96Q35.82-0.73 36.34-0.73ZM43.11-0.60L43.11-0.60Q43.11-0.95 43.32-1.16Q43.53-1.37 43.83-1.37L43.83-1.37Q44.12-1.37 44.33-1.16Q44.54-0.95 44.54-0.60L44.54-0.60Q44.54-0.28 44.33-0.07Q44.12 0.14 43.83 0.14L43.83 0.14Q43.53 0.14 43.32-0.07Q43.11-0.28 43.11-0.60ZM48.40 0L48.40-7.87L50.36-7.87Q52.19-7.87 53.14-6.86Q54.08-5.86 54.08-3.97L54.08-3.97Q54.08-3.04 53.84-2.30Q53.60-1.56 53.14-1.05Q52.67-0.54 51.98-0.27Q51.30 0 50.41 0L50.41 0L48.40 0ZM49.39-0.82L50.29-0.82Q51.67-0.82 52.36-1.64Q53.05-2.47 53.05-3.97L53.05-3.97Q53.05-5.47 52.36-6.26Q51.67-7.06 50.29-7.06L50.29-7.06L49.39-7.06L49.39-0.82ZM57.78 0L57.78-7.87L62.31-7.87L62.31-7.03L58.77-7.03L58.77-4.56L61.76-4.56L61.76-3.71L58.77-3.71L58.77-0.85L62.43-0.85L62.43 0L57.78 0ZM67.54 0L65.02-7.87L66.09-7.87L67.35-3.62Q67.56-2.92 67.73-2.32Q67.89-1.72 68.12-1.02L68.12-1.02L68.16-1.02Q68.38-1.72 68.55-2.32Q68.72-2.92 68.92-3.62L68.92-3.62L70.18-7.87L71.20-7.87L68.70 0L67.54 0Z" transform="translate(-0.624, 8.016)"/></g></g></g></g></g><defs v-gra="od"/></svg>